<svg xmlns="http://www.w3.org/2000/svg" width="15.138" height="19.037" viewBox="0 0 15.138 19.037">
  <path id="Icon_metro-bin" data-name="Icon metro-bin" d="M5.663,7.877v11.9a1.181,1.181,0,0,0,1.164,1.19h10.48a1.181,1.181,0,0,0,1.164-1.19V7.877H5.663ZM9.157,18.585H7.992V10.257H9.157Zm2.329,0H10.321V10.257h1.164Zm2.329,0H12.65V10.257h1.164Zm2.329,0H14.979V10.257h1.164Zm2.62-14.278H14.979V2.82a.886.886,0,0,0-.873-.892H10.03a.886.886,0,0,0-.873.892V4.308H5.372A.886.886,0,0,0,4.5,5.2V6.687H19.637V5.2A.886.886,0,0,0,18.764,4.308Zm-4.949,0H10.321V3.133h3.493V4.308Z" transform="translate(-4.499 -1.928)" fill="#011e62"/>
</svg>
